HIERARCHY
ROOT Hips
{
 OFFSET 0.000000 0.000000 0.000000
 CHANNELS 6 Xposition Yposition Zposition Yrotation Xrotation Zrotation
 JOINT Chest
 {
  OFFSET 0.000000 10.354800 0.006500
  CHANNELS 3 Yrotation Xrotation Zrotation
  JOINT Chest2
  {
   OFFSET 0.000000 10.435800 -0.013200
   CHANNELS 3 Yrotation Xrotation Zrotation
   JOINT Chest3
   {
    OFFSET 0.000000 10.393700 0.000000
    CHANNELS 3 Yrotation Xrotation Zrotation
    JOINT Chest4
    {
     OFFSET 0.000000 10.383100 0.000000
     CHANNELS 3 Yrotation Xrotation Zrotation
     JOINT Neck
     {
      OFFSET 0.000000 15.694000 0.000000
      CHANNELS 3 Yrotation Xrotation Zrotation
      JOINT Head
      {
       OFFSET 0.000000 9.711000 -0.028000
       CHANNELS 3 Yrotation Xrotation Zrotation
       End Site
       {
        OFFSET 0.000000 18.578700 -0.014800
       }
      }
     }
     JOINT RightCollar
     {
      OFFSET -3.157200 10.367500 0.000000
      CHANNELS 3 Yrotation Xrotation Zrotation
      JOINT RightShoulder
      {
       OFFSET -14.482500 0.000000 0.000000
       CHANNELS 3 Yrotation Xrotation Zrotation
       JOINT RightElbow
       {
        OFFSET 0.000000 -31.707800 0.000000
        CHANNELS 3 Yrotation Xrotation Zrotation
        JOINT RightWrist
        {
         OFFSET 0.000000 -25.659300 0.000000
         CHANNELS 3 Yrotation Xrotation Zrotation
         End Site
         {
          OFFSET 0.000000 -18.994300 0.000000
         }
        }
       }
      }
     }
     JOINT LeftCollar
     {
      OFFSET 3.157200 10.367500 0.000000
      CHANNELS 3 Yrotation Xrotation Zrotation
      JOINT LeftShoulder
      {
       OFFSET 14.482500 0.000000 0.000000
       CHANNELS 3 Yrotation Xrotation Zrotation
       JOINT LeftElbow
       {
        OFFSET 0.000000 -31.707800 0.000000
        CHANNELS 3 Yrotation Xrotation Zrotation
        JOINT LeftWrist
        {
         OFFSET 0.000000 -25.659300 0.000000
         CHANNELS 3 Yrotation Xrotation Zrotation
         End Site
         {
          OFFSET 0.000000 -18.994300 0.000000
         }
        }
       }
      }
     }
    }
   }
  }
 }
 JOINT RightHip
 {
  OFFSET -8.365600 -0.032100 -0.003200
  CHANNELS 3 Yrotation Xrotation Zrotation
  JOINT RightKnee
  {
   OFFSET 0.000000 -43.980000 0.003100
   CHANNELS 3 Yrotation Xrotation Zrotation
   JOINT RightAnkle
   {
    OFFSET 0.000000 -42.882800 0.005200
    CHANNELS 3 Yrotation Xrotation Zrotation
    JOINT RightToe
    {
     OFFSET 0.000000 -4.915500 10.826300
     CHANNELS 3 Yrotation Xrotation Zrotation
     End Site
     {
      OFFSET 0.000000 -1.517500 6.175900
     }
    }
   }
  }
 }
 JOINT LeftHip
 {
  OFFSET 8.365600 -0.032100 -0.003200
  CHANNELS 3 Yrotation Xrotation Zrotation
  JOINT LeftKnee
  {
   OFFSET 0.000000 -43.980000 0.003100
   CHANNELS 3 Yrotation Xrotation Zrotation
   JOINT LeftAnkle
   {
    OFFSET 0.000000 -42.882800 0.005200
    CHANNELS 3 Yrotation Xrotation Zrotation
    JOINT LeftToe
    {
     OFFSET 0.000000 -4.915500 10.826300
     CHANNELS 3 Yrotation Xrotation Zrotation
     End Site
     {
      OFFSET 0.000000 -1.517500 6.175900
     }
    }
   }
  }
 }
}
MOTION
Frames: 16
Frame Time: 0.008333
4.228360 125.796488 30.031054 -176.876331 -11.805368 -2.611841 -3.893730 7.717765 3.783620 -0.229281 0.414568 0.220095 -0.396803 0.719780 0.380834 -3.629509 7.018738 3.466957 -4.409945 16.664993 -3.633049 -3.867075 -8.104817 -2.860804 2.983546 2.524803 -4.736411 13.725132 -27.918304 -12.851836 -172.047359 -44.593589 -168.120516 1.424956 -35.872301 -57.208252 -3.916619 9.121238 5.306705 -33.107307 -50.972470 3.466739 -155.480333 -60.090344 136.580565 -2.109061 -8.951521 9.506008 14.936746 -59.130752 -16.369012 -161.933343 66.887931 -154.090597 -4.939264 -32.245051 4.953184 0.030533 0.310561 0.013939 -20.805262 -60.464450 12.533588 176.709353 75.194225 168.661181 -2.695288 -30.499604 2.214938 -0.021307 0.207081 -0.009693
4.225415 125.831118 30.049276 -176.891725 -12.104763 -2.681567 -3.903409 7.812256 3.751756 -0.231316 0.422167 0.220438 -0.400124 0.732672 0.381378 -3.634640 7.093190 3.444436 -4.398326 16.729073 -3.648782 -3.851449 -8.035466 -2.880628 2.974137 2.580768 -4.746081 13.638315 -27.750716 -12.803604 -172.064689 -44.656063 -168.092221 1.402980 -35.975685 -57.209570 -3.852492 9.128400 5.272435 -33.270314 -50.901066 3.565718 -155.485355 -60.378478 136.417110 -1.829716 -9.066575 9.837808 14.746426 -58.888162 -16.100614 -161.864714 66.863856 -154.019926 -4.917281 -32.175084 4.993978 0.030593 0.279662 0.013954 -20.445685 -60.238857 12.237459 176.627617 75.150624 168.669402 -2.747688 -30.458903 2.264416 -0.005879 0.208016 -0.002666
4.224156 125.865333 30.071769 -176.910421 -12.413065 -2.753631 -3.909819 7.904678 3.722002 -0.233713 0.430884 0.220516 -0.404074 0.747484 0.381346 -3.642361 7.178431 3.413323 -4.375973 16.789976 -3.663685 -3.824393 -7.969874 -2.901874 2.996468 2.668224 -4.703676 13.530864 -27.588376 -12.813133 -172.085659 -44.741725 -168.053319 1.363280 -36.085599 -57.199401 -3.790931 9.147171 5.242797 -33.411342 -50.811954 3.660075 -155.520456 -60.672329 136.295345 -1.577626 -9.178174 10.124986 14.595515 -58.632051 -15.851248 -161.722268 66.822217 -153.864984 -4.886057 -32.073834 5.102019 0.034787 0.242712 0.015855 -20.099767 -59.988354 11.955623 176.537839 75.115097 168.681049 -2.811989 -30.419926 2.294976 0.019999 0.208966 0.009123
4.217836 125.899863 30.094677 -176.932377 -12.756127 -2.791640 -3.917702 8.018055 3.654438 -0.236468 0.440840 0.220347 -0.408646 0.764425 0.380809 -3.652161 7.275248 3.374002 -4.343833 16.846570 -3.677937 -3.786858 -7.909286 -2.924414 2.989557 2.724933 -4.752337 13.406249 -27.406688 -12.718508 -172.151098 -44.851361 -167.988469 1.306536 -36.193852 -57.166696 -3.732029 9.178535 5.215549 -33.499947 -50.690476 3.745889 -155.648564 -60.960278 136.270543 -1.366426 -9.283493 10.357045 14.459081 -58.312338 -15.624558 -161.464782 66.781085 -153.632049 -4.788204 -32.014796 5.217419 0.005019 0.235052 0.002290 -19.689454 -59.694953 11.641393 176.710175 75.094005 168.891299 -2.834526 -30.375835 2.384738 0.008808 0.195440 0.004020
4.210226 125.933689 30.123002 -176.947339 -13.103374 -2.817401 -3.936933 8.122643 3.569151 -0.239569 0.452128 0.219804 -0.413850 0.783648 0.379600 -3.663908 7.384180 3.325035 -4.302290 16.900660 -3.690307 -3.739602 -7.851773 -2.947035 2.996596 2.794794 -4.800742 13.272745 -27.219775 -12.625443 -172.279819 -44.986890 -167.883555 1.217298 -36.301202 -57.092905 -3.675310 9.220019 5.189447 -33.760687 -50.679121 3.892054 -155.410132 -61.319941 135.989065 -1.168550 -9.387989 10.531755 14.317628 -57.981000 -15.409052 -161.280650 66.745118 -153.477373 -4.709846 -31.939203 5.300536 -0.024856 0.181237 -0.011316 -19.278734 -59.391149 11.313901 176.821730 75.076038 169.050855 -2.872231 -30.302185 2.455042 0.009375 0.152007 0.004268
4.204885 125.967990 30.151430 -176.961861 -13.480851 -2.851486 -3.957538 8.246894 3.483759 -0.242880 0.464644 0.218890 -0.419391 0.804912 0.377668 -3.675711 7.503453 3.267586 -4.253741 16.955219 -3.700059 -3.685426 -7.793987 -2.968447 3.023397 2.879544 -4.813894 13.137945 -27.018625 -12.565885 -172.460298 -45.147691 -167.746817 1.088717 -36.409110 -56.958806 -3.624988 9.269865 5.161327 -33.935644 -50.620866 4.007509 -155.207724 -61.630745 135.755835 -0.973002 -9.496436 10.652695 14.198785 -57.615828 -15.197674 -161.152065 66.707844 -153.352116 -4.650727 -31.907579 5.355495 -0.045682 0.151412 -0.020790 -18.877518 -59.058681 10.996563 176.906173 75.050452 169.202327 -2.928195 -30.217640 2.485506 0.017954 0.138839 0.008170
4.205111 126.001474 30.184662 -176.964729 -13.854771 -2.914728 -3.988174 8.364962 3.416144 -0.246278 0.477791 0.217598 -0.424980 0.827197 0.375147 -3.687199 7.626814 3.204744 -4.201244 17.012703 -3.707264 -3.627514 -7.733101 -2.987899 3.055851 2.960992 -4.824711 12.997315 -26.792695 -12.500742 -172.675295 -45.334832 -167.593328 0.923376 -36.518245 -56.747686 -3.580174 9.328089 5.126229 -34.070407 -50.534758 4.127219 -154.982830 -61.911251 135.533815 -0.781116 -9.615622 10.722334 14.111549 -57.243929 -14.987378 -161.032002 66.667260 -153.193269 -4.617444 -31.883341 5.420051 -0.053761 0.127349 -0.024457 -18.540755 -58.714336 10.733197 176.945828 75.029566 169.326302 -2.975694 -30.167614 2.512409 0.038032 0.118685 0.017300
4.204477 126.034020 30.220617 -176.975480 -14.232605 -2.969312 -4.013891 8.488286 3.330383 -0.249523 0.490884 0.215879 -0.430410 0.849480 0.371942 -3.698183 7.748671 3.137257 -4.147593 17.074662 -3.710798 -3.569166 -7.667402 -3.003657 3.095713 3.035789 -4.829961 12.850359 -26.538302 -12.429203 -172.922092 -45.549420 -167.419187 0.728755 -36.622751 -56.454088 -3.531544 9.390677 5.080734 -34.170870 -50.430376 4.244963 -154.724922 -62.172371 135.296725 -0.592657 -9.756821 10.750265 13.995269 -56.878632 -14.745669 -160.899972 66.625527 -153.054811 -4.616856 -31.852040 5.515481 -0.069776 0.107427 -0.031733 -18.199094 -58.356643 10.492988 177.060610 75.010001 169.489024 -3.021754 -30.141204 2.584581 0.038719 0.092017 0.017604
4.204035 126.065163 30.259960 -176.997959 -14.603870 -3.021585 -4.031675 8.609547 3.234559 -0.252511 0.503637 0.213627 -0.435419 0.871219 0.367846 -3.707713 7.866811 3.064599 -4.095509 17.143162 -3.710234 -3.513565 -7.594587 -3.014779 3.141027 3.100889 -4.824620 12.708224 -26.255451 -12.355124 -173.209794 -45.799319 -167.217109 0.511374 -36.715272 -56.082309 -3.472098 9.452805 5.021199 -34.206011 -50.297088 4.343856 -154.499401 -62.418467 135.078744 -0.408543 -9.916245 10.747264 13.908394 -56.524653 -14.505217 -160.760734 66.578236 -152.908382 -4.613395 -31.833691 5.579209 -0.074008 0.087009 -0.033647 -17.961958 -57.990905 10.335915 177.126794 74.989349 169.560887 -3.058279 -30.127804 2.638778 0.028972 0.075237 0.013168
4.206987 126.093951 30.305879 -177.041160 -14.944859 -3.087541 -4.031357 8.706223 3.151774 -0.255356 0.515927 0.210722 -0.440037 0.892085 0.362691 -3.716851 7.980005 2.986071 -4.046484 17.218429 -3.706721 -3.462021 -7.514300 -3.022141 3.189907 3.159333 -4.806681 12.583449 -25.946550 -12.286587 -173.560043 -46.087124 -166.983980 0.265499 -36.785051 -55.633044 -3.402859 9.509960 4.943356 -34.154760 -50.122424 4.413663 -154.350621 -62.662377 134.907031 -0.228341 -10.082490 10.714595 13.842713 -56.213029 -14.245231 -160.611582 66.524748 -152.747919 -4.642764 -31.797074 5.643577 -0.056378 0.052857 -0.025618 -17.626370 -57.663286 10.171674 177.371217 74.966802 169.843764 -3.095106 -30.083617 2.734365 0.009687 0.044871 0.004401
4.205756 126.122260 30.349990 -177.074275 -15.300731 -3.136824 -4.048123 8.823148 3.039348 -0.258151 0.528135 0.207435 -0.444588 0.912743 0.356840 -3.726215 8.090973 2.903546 -3.999503 17.293540 -3.700892 -3.413117 -7.434090 -3.026627 3.245064 3.213812 -4.776082 12.476488 -25.615181 -12.227926 -173.993218 -46.405332 -166.715243 -0.018914 -36.819391 -55.103083 -3.328023 9.555108 4.843223 -34.016784 -49.892854 4.458701 -154.295653 -62.917058 134.798461 -0.049357 -10.247302 10.644043 13.744605 -55.887008 -13.996946 -160.495107 66.489394 -152.650982 -4.626238 -31.788300 5.698077 -0.085414 0.048197 -0.038810 -17.272699 -57.330356 9.960157 177.581609 74.944031 170.101950 -3.124954 -30.048420 2.809062 0.004919 0.032086 0.002234
4.210363 126.149686 30.396038 -177.120220 -15.648697 -3.218787 -4.056358 8.940893 2.953186 -0.260847 0.540817 0.203970 -0.449057 0.934246 0.350700 -3.733556 8.204552 2.818905 -3.952877 17.359392 -3.691834 -3.365241 -7.363975 -3.027487 3.310938 3.261514 -4.734900 12.371177 -25.260481 -12.177306 -174.515781 -46.742370 -166.405019 -0.344899 -36.807781 -54.493674 -3.253724 9.581715 4.719801 -33.789339 -49.597947 4.479266 -154.350549 -63.185569 134.767920 0.127311 -10.394108 10.526551 13.718500 -55.595672 -13.706517 -160.303220 66.417181 -152.434354 -4.674101 -31.747321 5.783384 -0.069527 0.036273 -0.031585 -17.017088 -56.994749 9.852924 177.723452 74.914161 170.286066 -3.165987 -30.012417 2.864998 -0.000702 0.026152 -0.000319
4.215444 126.176612 30.442930 -177.174540 -15.997673 -3.305420 -4.063153 9.066124 2.866992 -0.263401 0.554278 0.200355 -0.453323 0.957064 0.344247 -3.737519 8.323353 2.731781 -3.908060 17.409546 -3.677958 -3.320360 -7.310992 -3.022664 3.386553 3.301821 -4.688264 12.246899 -24.881040 -12.129686 -175.122450 -47.088848 -166.052012 -0.704465 -36.742818 -53.804449 -3.192018 9.590111 4.573500 -33.452074 -49.235869 4.461606 -154.526352 -63.462529 134.819874 0.303812 -10.506147 10.349856 13.696173 -55.321686 -13.386477 -160.090911 66.338911 -152.206815 -4.733021 -31.688738 5.880956 -0.053040 0.027537 -0.024092 -16.779972 -56.659006 9.773893 177.840146 74.880519 170.441534 -3.218640 -29.969582 2.921141 -0.004493 0.020970 -0.002041
4.217036 126.203965 30.488138 -177.236335 -16.365785 -3.375280 -4.064815 9.213319 2.761999 -0.265956 0.569080 0.196829 -0.457486 0.981999 0.337850 -3.737672 8.450671 2.644136 -3.870512 17.438991 -3.659738 -3.284142 -7.280476 -3.011451 3.467514 3.338029 -4.641472 12.086506 -24.478032 -12.080977 -175.798687 -47.438783 -165.660622 -1.083353 -36.621778 -53.029228 -3.156326 9.580119 4.400081 -32.980604 -48.803307 4.388773 -154.813989 -63.738500 134.933898 0.490835 -10.583342 10.107188 13.671640 -55.035573 -13.065109 -159.886096 66.272587 -152.011093 -4.777098 -31.619898 5.983293 -0.055340 0.031078 -0.025139 -16.597568 -56.312687 9.714669 177.919524 74.838103 170.527562 -3.239478 -29.862905 2.923368 -0.010142 0.031529 -0.004607
4.220070 126.231542 30.534339 -177.289980 -16.738579 -3.458263 -4.068628 9.368371 2.668059 -0.268620 0.585668 0.193591 -0.461734 1.009989 0.331989 -3.733348 8.589745 2.559015 -3.843992 17.445865 -3.639702 -3.260035 -7.274336 -2.995630 3.551288 3.372598 -4.598658 11.878280 -24.048806 -12.026977 -176.525507 -47.784042 -165.233241 -1.472674 -36.453587 -52.165673 -3.155786 9.547989 4.196713 -32.350249 -48.290903 4.246031 -155.214988 -64.003210 135.095289 0.694867 -10.629988 9.809390 13.642310 -54.761202 -12.717972 -159.665695 66.205834 -151.802566 -4.820814 -31.522811 6.094942 -0.064197 0.039295 -0.029166 -16.442802 -55.952283 9.664758 177.968432 74.806989 170.597271 -3.255010 -29.812624 2.924629 -0.005937 0.034913 -0.002697
4.226132 126.259737 30.581144 -177.339715 -17.119797 -3.560526 -4.070506 9.532779 2.591802 -0.271164 0.604018 0.190641 -0.465860 1.041016 0.326595 -3.722565 8.740284 2.476883 -3.826356 17.432679 -3.618957 -3.245480 -7.289836 -2.977011 3.632427 3.407376 -4.558672 11.624882 -23.589484 -11.964756 -177.276975 -48.120966 -164.778608 -1.865076 -36.253865 -51.215706 -3.189808 9.495795 3.970650 -31.558629 -47.694911 4.036485 -155.741535 -64.256267 135.314283 0.913969 -10.645588 9.474251 13.607311 -54.500863 -12.331525 -159.430642 66.137159 -151.581016 -4.864126 -31.388781 6.213210 -0.080681 0.049595 -0.036660 -16.179944 -55.599056 9.593128 178.162774 74.768582 170.847320 -3.309440 -29.758086 2.992496 0.004486 0.018114 0.002037
